<svg xmlns="http://www.w3.org/2000/svg" viewBox="0 0 64 64" width="64" height="64">
  <!-- DrawSol mark: a ticket stub tilted 12°, Solana purple gradient, white star (components/Logo.tsx) -->
  <defs>
    <linearGradient id="g" x1="0" y1="0" x2="1" y2="1">
      <stop offset="0" stop-color="#9945FF"/>
      <stop offset="1" stop-color="#7C3AED"/>
    </linearGradient>
  </defs>
  <g transform="translate(32 32) rotate(-12)">
    <path d="M-17-18H17A8 8 0 0 1 25-10V-5A5 5 0 0 0 25 5V10A8 8 0 0 1 17 18H-17A8 8 0 0 1-25 10V5A5 5 0 0 0-25-5V-10A8 8 0 0 1-17-18Z" fill="url(#g)"/>
    <polygon points="0,-9 2.35,-2.24 9.51,-2.09 3.8,2.24 5.88,9.09 0,5 -5.88,9.09 -3.8,2.24 -9.51,-2.09 -2.35,-2.24" fill="#FFFFFF"/>
  </g>
</svg>
